<svg id="Layer_1" data-name="Layer 1" xmlns="http://www.w3.org/2000/svg" viewBox="0 0 600 600"><defs><style>.cls-1{fill:#333;}.cls-2{fill:#9e005d;}.cls-3{fill:#1a1a1a;}.cls-4{fill:#e6e6e6;}.cls-5{fill:#f2f2f2;}</style></defs><title>Icon</title><rect class="cls-1" x="202.2" y="357" width="272" height="132" rx="66" ry="66"/><rect class="cls-2" x="62.2" y="89" width="492" height="357" rx="120.56" ry="120.56"/><rect class="cls-2" x="511.19" y="183" width="73" height="168" rx="36.5" ry="36.5"/><rect class="cls-1" x="124.19" y="140" width="293" height="175" rx="12" ry="12"/><circle class="cls-1" cx="129" cy="253" r="123"/><circle class="cls-3" cx="128.69" cy="252.5" r="100.5"/><circle class="cls-1" cx="406" cy="251" r="123"/><circle class="cls-3" cx="405.69" cy="250.5" r="100.5"/><rect class="cls-3" x="270.19" y="386.92" width="93.1" height="26" rx="13" ry="13"/><circle class="cls-3" cx="349.04" cy="394.84" r="17.66"/><rect class="cls-4" x="381.57" y="184" width="49.86" height="134" rx="24.93" ry="24.93"/><rect class="cls-4" x="339.19" y="225.76" width="134" height="49.86" rx="24.93" ry="24.93"/><circle class="cls-5" cx="83.69" cy="252.5" r="25.5"/><circle class="cls-5" cx="125.69" cy="211.5" r="25.5"/><circle class="cls-5" cx="166.69" cy="252.5" r="25.5"/><circle class="cls-5" cx="125.69" cy="294.5" r="25.5"/></svg>