<svg xmlns="http://www.w3.org/2000/svg" viewBox="0 0 600 600"><defs><style>.cls-1{fill:none;}.cls-2{fill:#7289da;}.cls-3{fill:#fff;}</style></defs><title>discordChat</title><g id="Layer_6" data-name="Layer 6"><path class="cls-1" d="M437.78,122.64A502.49,502.49,0,0,0,369.64,108a288.71,288.71,0,0,1,33.56,11.71Q420.62,121,437.78,122.64Z"/><path class="cls-1" d="M195.58,119.8A288.87,288.87,0,0,1,229.36,108a501.18,501.18,0,0,0-68.68,14.8Q178,121.09,195.58,119.8Z"/><path class="cls-2" d="M229.36,108H182a84.44,84.44,0,0,0-52.39,18.22A41,41,0,0,0,136,131a44.36,44.36,0,0,0,25,6,297.65,297.65,0,0,1,68.36-29Z"/><path class="cls-2" d="M469.21,126.07A84.49,84.49,0,0,0,417,108H369.64a502.49,502.49,0,0,1,68.14,14.64Q453.61,124.19,469.21,126.07Z"/><path class="cls-2" d="M129.61,126.22a85.7,85.7,0,0,0-11.56,11q21-8.12,42.63-14.39Q145,124.33,129.61,126.22Z"/><path class="cls-2" d="M481,137.19a86.37,86.37,0,0,0-11.74-11.12q-15.61-1.87-31.43-3.43Q459.65,129,481,137.19Z"/><path class="cls-2" d="M410,122.19a86.37,86.37,0,0,0-11.74-11.12q-15.61-1.87-31.43-3.43Q388.65,114,410,122.19Z"/><path class="cls-2" d="M481,137.19q-21.3-8.22-43.17-14.55-17.16-1.67-34.58-2.93a325.86,325.86,0,0,1,34.58,17,735.39,735.39,0,0,0-277.1.3,325.74,325.74,0,0,1,34.9-17.2q-17.57,1.29-34.9,3-21.59,6.26-42.63,14.39A84.62,84.62,0,0,0,97,193V370c0,39.57,27.4,73,64.17,82.39L207.78,401a19.85,19.85,0,0,1,30,.66L260,428.42A19.84,19.84,0,0,1,258.84,455H417a85.25,85.25,0,0,0,85-85V193A84.62,84.62,0,0,0,481,137.19Z"/><path class="cls-2" d="M161.17,452.39l-36.46,40.19c-15.43,17,5.54,42.27,25.1,30.23L255.09,458a19.72,19.72,0,0,0,3.75-3H182A84.25,84.25,0,0,1,161.17,452.39Z"/><path class="cls-2" d="M260,428.42l-22.21-26.75a19.85,19.85,0,0,0-30-.66l-46.61,51.38A84.25,84.25,0,0,0,182,455h76.84A19.84,19.84,0,0,0,260,428.42Z"/><rect class="cls-2" x="97" y="198" width="405" height="255" rx="127.5" ry="127.5"/><circle class="cls-3" cx="205.12" cy="294.6" r="60.12"/><circle class="cls-3" cx="393.88" cy="294.6" r="60.12"/><polygon class="cls-2" points="409.95 122.19 401.24 113.56 423 114 443.24 124.25 409.95 122.19"/><rect class="cls-2" x="161" y="424" width="104" height="31"/></g></svg>